PathFileType	4	(X/Y/Z)	s11c0402.trc
DataRate	CameraRate	NumFrames	NumMarkers	Units	OrigDataRate	OrigDataStartFrame	OrigNumFrames
200	200	4	48	mm	200	250	2000
Frame#	Time	racr			lacr			c7			jug			rlel			rdr			llel			ldr			s2			lic			ric			lasi			rasi			rpsi			lpsi			rgt			lgt			rth1			rth2			rth3			rth4			rlfc			rmfc			rsh1			rsh2			rsh3			rsh4			rlmal			rcal			rtoe			rmt5			lth1			lth2			lth4			lth3			llfc			lmfc			llmal			lcal			lmt5			lsh1			lsh2			lsh3			lsh4			ltoe			SBIKE			LBIKE			RBIKE			
		X1	Y1	Z1	X2	Y2	Z2	X3	Y3	Z3	X4	Y4	Z4	X5	Y5	Z5	X6	Y6	Z6	X7	Y7	Z7	X8	Y8	Z8	X9	Y9	Z9	X10	Y10	Z10	X11	Y11	Z11	X12	Y12	Z12	X13	Y13	Z13	X14	Y14	Z14	X15	Y15	Z15	X16	Y16	Z16	X17	Y17	Z17	X18	Y18	Z18	X19	Y19	Z19	X20	Y20	Z20	X21	Y21	Z21	X22	Y22	Z22	X23	Y23	Z23	X24	Y24	Z24	X25	Y25	Z25	X26	Y26	Z26	X27	Y27	Z27	X28	Y28	Z28	X29	Y29	Z29	X30	Y30	Z30	X31	Y31	Z31	X32	Y32	Z32	X33	Y33	Z33	X34	Y34	Z34	X35	Y35	Z35	X36	Y36	Z36	X37	Y37	Z37	X38	Y38	Z38	X39	Y39	Z39	X40	Y40	Z40	X41	Y41	Z41	X42	Y42	Z42	X43	Y43	Z43	X44	Y44	Z44	X45	Y45	Z45	X46	Y46	Z46	X47	Y47	Z47	X48	Y48	Z48	
250	1.2500	698.030117	1415.008609	-82.863818	703.151167	1455.154198	-456.738657	656.543585	1557.423561	-271.679536	682.369803	1377.791930	-283.660911	576.389403	1166.374078	31.125173	749.772272	972.224873	-54.454441	552.744200	1171.819752	-547.660744	756.333833	941.288987	-465.321116	107.150288	1256.488088	-230.505572	298.771306	1295.123372	-451.514995	344.765330	1242.862154	-56.006370	334.008577	1216.239467	-422.296644	371.762335	1186.296706	-100.951983	163.359323	1324.882246	-177.721718	146.400922	1325.389168	-268.999486	250.896701	1091.087475	-44.582441	230.472736	1155.412095	-463.850126	286.448364	963.063379	-46.354046	329.913103	886.133172	-60.886672	329.920274	801.091396	-83.077250	364.737258	896.623169	-67.867514	356.803521	703.819375	-105.679304	347.294744	684.511946	-227.278190	304.917375	552.554968	-86.168619	301.798638	465.523564	-101.174413	257.953375	390.089001	-99.320973	326.587043	460.645764	-131.927473	211.516936	261.011557	-106.935299	145.278986	253.556213	-152.008846	420.738307	171.444851	-149.118612	348.434849	156.663717	-78.538957	353.452378	1065.752052	-488.267318	431.264622	1030.362947	-487.609616	455.023492	1056.304318	-477.576215	483.209141	956.931064	-492.106689	570.708463	860.050283	-475.718188	589.266255	844.553387	-343.975785	212.704282	635.385710	-428.636268	151.521279	656.688484	-390.278589	220.580936	459.854939	-451.886990	469.848194	794.333959	-486.627960	416.384875	729.848496	-466.048311	334.679009	697.661850	-456.580121	437.848429	707.086771	-444.509558	292.799286	393.981507	-385.140525	-214.619073	953.719050	-256.305523	-17.632812	80.886350	-460.890267	-17.729380	80.760287	-61.930041	
251	1.2550	698.910643	1417.253442	-84.531979	703.587032	1454.719852	-459.483108	657.858682	1558.530641	-274.411921	683.418135	1379.027404	-285.554679	577.848920	1168.369837	29.544668	750.535754	972.420100	-55.052920	552.434065	1171.518733	-548.402975	756.228981	941.414420	-464.947533	108.637884	1258.410745	-229.815660	299.419060	1296.704564	-451.544641	347.248803	1244.669631	-56.450955	334.215201	1217.565417	-422.053970	373.202922	1188.630574	-101.694549	165.041949	1326.517323	-176.992939	147.833546	1327.124470	-268.235460	250.945828	1092.395878	-44.702913	231.641023	1157.795528	-463.847253	284.554893	963.845516	-46.480363	327.057856	886.417786	-60.867569	326.005577	801.357034	-83.293410	362.005306	896.450437	-67.986582	352.002247	704.067288	-106.054403	341.701006	684.731797	-227.886257	300.075002	552.945740	-86.364667	297.290052	465.833624	-101.250302	253.626192	390.384470	-99.355588	322.152462	461.072713	-131.908357	207.779221	261.033210	-106.854954	141.894198	255.105456	-152.041795	415.379756	166.778249	-149.171268	342.772369	153.612495	-78.458287	354.774326	1067.797286	-487.166481	432.788175	1032.841027	-486.479108	456.396236	1059.053990	-476.720324	485.075065	959.635052	-490.362664	573.436783	863.955082	-474.040376	591.748607	848.839826	-342.098773	216.438328	638.260374	-427.630313	154.394024	658.668555	-389.966195	226.810065	463.264000	-452.038336	473.322521	797.648453	-484.858231	419.936896	733.044769	-464.581787	338.261621	700.672976	-455.408586	441.409348	710.318691	-442.771843	300.019529	398.251805	-385.325465	-214.721494	953.714713	-256.390927	-17.659113	80.918714	-460.879639	-17.747065	80.785946	-61.936087	
252	1.2600	699.806770	1419.480162	-86.178945	704.106699	1454.162290	-462.172993	659.206995	1559.299955	-276.974475	684.436333	1380.022989	-287.420090	579.400071	1170.206281	28.095602	751.447234	972.672091	-55.870924	552.265238	1171.171233	-549.137412	756.245176	941.733797	-464.547399	110.117771	1260.331814	-229.463974	300.206724	1298.392653	-451.719649	349.126970	1246.625319	-58.006623	334.500383	1219.065937	-421.774446	374.588206	1191.171359	-102.536015	167.620195	1328.125691	-177.238180	150.040074	1328.719152	-268.721264	251.171481	1093.919786	-44.809186	232.846013	1160.285179	-463.907440	282.930313	964.936187	-46.217354	324.451271	886.962432	-60.842658	322.364257	801.931207	-83.576525	359.563070	896.548101	-68.068943	347.532673	704.567499	-106.418800	336.289740	685.326386	-228.431637	295.470389	553.716021	-86.511959	292.932897	466.551047	-101.305025	249.488591	390.989245	-99.310937	317.814664	461.834750	-132.082411	204.284868	261.393095	-106.705190	138.589557	257.076377	-152.019687	409.937125	162.314287	-149.150984	337.034800	150.895732	-78.415130	356.025147	1069.968904	-486.087915	434.207588	1035.338366	-485.288811	457.719854	1061.819861	-475.941894	486.837402	962.389833	-488.564758	575.912964	867.756280	-472.386436	593.950044	853.305721	-340.167388	219.880545	640.660209	-426.719217	157.047507	660.350803	-389.628919	233.207286	466.330865	-452.147786	476.431408	800.887964	-483.114273	423.239076	736.125913	-463.102903	341.659439	703.340057	-454.302043	444.684152	713.436853	-441.115531	307.673926	402.741662	-385.201785	-214.761188	953.674668	-256.291299	-17.670807	80.905171	-460.890313	-17.757691	80.788983	-61.946400	
253	1.2650	700.763868	1421.544272	-87.829604	704.655839	1453.460350	-464.685325	660.584919	1560.001132	-279.678243	685.438024	1380.908759	-289.272201	581.057753	1171.915910	26.718840	752.375763	972.852678	-56.822227	552.158669	1170.823002	-549.837783	756.370962	942.217666	-464.180179	111.438393	1262.767462	-229.064074	301.095885	1300.259219	-451.925423	351.601245	1248.966679	-58.465738	334.807065	1220.743614	-421.519883	375.866718	1193.487521	-103.415398	169.497618	1330.054083	-176.819251	150.915578	1330.923697	-267.989832	251.576071	1095.683688	-44.948334	234.032465	1162.974717	-463.985598	282.030027	966.410956	-45.682933	322.135975	887.767611	-60.723329	318.933944	802.796546	-83.496773	357.332124	897.024023	-68.178684	343.324059	705.256642	-106.758296	331.169097	686.266649	-229.018724	290.998327	554.677195	-86.564647	288.804109	467.617820	-101.296557	245.478784	391.754205	-99.300697	313.676148	462.775575	-132.031994	200.930684	262.022079	-106.556673	135.434731	259.445024	-151.978853	404.422014	158.170951	-148.997444	331.171027	148.297261	-78.408323	357.223502	1072.290747	-484.953860	435.551067	1038.064315	-484.139799	459.231152	1064.722472	-475.090056	488.517966	965.145721	-486.798644	578.292972	871.330687	-470.322236	595.883486	857.601747	-338.306044	223.336321	642.899684	-425.999740	159.681451	661.592829	-389.301611	239.561226	469.197698	-452.313848	479.275416	804.066164	-481.328323	426.328401	739.009718	-461.644543	344.882864	705.859814	-453.157203	447.748413	716.505932	-439.529704	315.145190	406.847989	-385.234504	-214.834784	953.687007	-256.356000	-17.680868	80.927470	-460.901307	-17.706492	80.846979	-62.065703	
